<?xml version="1.0" encoding="utf-8"?>
<!-- Generator: Adobe Illustrator 23.0.2, SVG Export Plug-In . SVG Version: 6.00 Build 0)  -->
<svg version="1.1" id="Layer_1" xmlns="http://www.w3.org/2000/svg" xmlns:xlink="http://www.w3.org/1999/xlink" x="0px"
	y="0px" viewBox="0 0 851.87 792" style="enable-background:new 0 0 851.87 792;" xml:space="preserve">

	<g>
		<polygon points="229.84,589.12 229.84,606.06 216.28,598.23 200.07,588.87 200.07,607.59 200.07,626.31 216.28,616.95 
		229.84,609.12 229.84,626.07 232.62,626.07 232.62,589.12 	" />
		<polygon points="88.02,626.07 88.02,609.12 101.58,616.95 117.79,626.31 117.79,607.59 117.79,588.87 101.58,598.23 88.02,606.06 
		88.02,589.12 85.24,589.12 85.24,626.07 	" />
		<path d="M158.93,579.6c-15.46,0-27.99,12.53-27.99,27.99s12.53,27.99,27.99,27.99s27.99-12.53,27.99-27.99
		S174.39,579.6,158.93,579.6z M161.95,614.95l-12.75,7.36v-14.72v-14.72l12.75,7.36l12.75,7.36L161.95,614.95z" />
	</g>
	<path d="M267.85,562.02H62.21c-1.13-2.76-3.83-4.7-6.99-4.7c-3.16,0-5.86,1.94-6.99,4.7h-3.58v5.71h3.58
	c1.13,2.76,3.83,4.7,6.99,4.7c3.16,0,5.86-1.94,6.99-4.7h205.64V562.02z" />
	<path d="M253.99,538.99c0,0-5.28-8.5-9.82-3.81c-4.54,4.69,7.62,16.71,9.38,17.45c0,0,14.27-10.24,11-16.27
	C260.88,529.61,253.99,538.99,253.99,538.99z" />
	<!-- <path d="M744.39,406.56H553.4V114.01h190.99V406.56z M751.97,107.19H545.82v306.19h206.15V107.19z" /> -->
	<path d="M251.93,396.5H58.32V202.89h193.61V396.5z M257.21,197.61H53.04v204.17h204.17V197.61z" />
</svg>